<svg width="15" height="15" viewBox="0 0 15 15" fill="none" xmlns="http://www.w3.org/2000/svg">
<path d="M0 6.68007C0.0282705 3.52459 2.24446 0.792696 5.3337 0.141504C9.06153 -0.644034 12.719 1.92076 13.2639 5.70411C13.4945 7.30461 13.1774 8.79408 12.3354 10.1697C12.255 10.3008 12.2589 10.3718 12.3686 10.4812C13.4412 11.5465 13.5011 11.5483 14.5649 12.6219C15.1752 13.2376 15.1208 14.1608 14.4562 14.6638C13.9324 15.0602 13.2184 15.0174 12.7273 14.5455C12.332 14.1664 11.9512 13.7722 11.5637 13.3847C10.8725 12.693 11.1885 13.071 10.5033 12.3737C10.3914 12.2599 10.3187 12.2421 10.1768 12.3304C6.25166 14.762 1.12084 12.5525 0.172395 8.01965C0.0803769 7.57997 0.0559867 7.12696 0 6.68007ZM6.68792 2.00459C4.12306 2.00348 2.0316 4.09307 2.02772 6.66064C2.02439 9.22988 4.10865 11.3272 6.67129 11.3339C9.24446 11.34 11.3431 9.2432 11.342 6.66674C11.3404 4.09751 9.25222 2.0057 6.68792 2.00459Z" fill="#8A93B1"/>
</svg>
